***************************************************************

Ice Age Continental Drift 1080p BLuRay X264 AC3 - alrmothe

***************************************************************

TiTLE: Ice Age: Continental Drift
YEAR:2012
GENRE : Animation | Adventure | Comedy 
iMDB URL : http://www.imdb.com/title/tt1667889/
SIZE : 4.09 GB
Format : mkv 
Overall bit rate:6678 Kbps
Sub: Arabic SDH
Encoded / Released By: alrmothe
 
****************************

Video
Format : AVC
Format/Info : Advanced Video Codec
Format profile : High@L4.0
Runtime: 1h 34min 12sec
bit rate: 6300 Kbps
Width: 1920 pixels
Height: 800 pixels
Display aspect ratio : 2.40:1
Frame rate: 23.976 fps
Bit depth : 8 bits
Bits/(Pixel*Frame) : 0.171
Stream size : 3.78 GiB (92%)

Audio: Arabic
Format: AC3
Bit rate: 348 Kbps
Sampling rate: 48.0 KHz
Channel(s): 6 channels(5.1)
Stream size : 241 MiB (5%)
Language : Arabic
***************************************


Screenshots
 
http://img577.imageshack.us/img577/4092/vlcsnap2013010620h52m24.png
 
http://img708.imageshack.us/img708/5440/85903902.png
 
http://img27.imageshack.us/img27/1386/38054552.png
 
http://img541.imageshack.us/img541/7572/25403031.png
 
http://img811.imageshack.us/img811/6383/vlcsnap2013010622h11m08.png
 
http://img824.imageshack.us/img824/4319/vlcsnap2013010620h57m24.png
 
http://img195.imageshack.us/img195/5532/vlcsnap2013010620h57m48.png
 
http://img854.imageshack.us/img854/6070/vlcsnap2013010620h55m35.png
 
http://img820.imageshack.us/img820/1696/iceagecontinentaldriftj.jpg